<svg width="35" height="35" viewBox="0 0 35 35" fill="none" xmlns="http://www.w3.org/2000/svg">
<ellipse cx="15.9095" cy="18.7539" rx="15.9095" ry="15.909" fill="#FF883E"/>
<ellipse cx="15.9073" cy="18.754" rx="12.7276" ry="12.7272" fill="white"/>
<ellipse cx="15.904" cy="18.7538" rx="7.95476" ry="7.95451" fill="#FF883E"/>
<ellipse cx="15.9124" cy="18.7538" rx="3.1819" ry="3.18181" fill="white"/>
<path d="M23.1716 2.34336C23.5112 1.19626 24.88 0.725759 25.8531 1.42169C26.8266 2.11799 26.8231 3.56642 25.8462 4.25799L21.7485 7.15883C21.7483 7.15898 21.748 7.15906 21.7478 7.15906C21.7469 7.15906 21.7463 7.15826 21.7466 7.15746L23.1716 2.34336Z" fill="#4342FF"/>
<path d="M30.4858 8.8609C31.181 7.98666 32.4977 7.95383 33.2356 8.79233C34.078 9.74963 33.6802 11.2556 32.4749 11.672L27.3205 13.4525C27.1866 13.4988 27.0469 13.3993 27.0469 13.2575C27.0469 13.2109 27.0627 13.1656 27.0917 13.1291L30.4858 8.8609Z" fill="#4342FF"/>
<path d="M21.4868 11.5123C21.9309 11.1126 22.6101 11.1305 23.0326 11.5529C23.4878 12.0081 23.4682 12.7518 22.9898 13.1823L16.7074 18.8363C16.2633 19.236 15.584 19.2181 15.1615 18.7957C14.7064 18.3405 14.726 17.5968 15.2044 17.1663L21.4868 11.5123Z" fill="#E5E5E5"/>
<path d="M27.4964 2.83697C28.2235 2.33361 29.1239 2.14727 29.9911 2.32069L30.3684 2.39615C31.6727 2.657 32.6115 3.80221 32.6115 5.13233C32.6115 5.71393 32.4298 6.28098 32.0918 6.75424L27.1186 13.7165C25.7463 15.6376 23.0971 16.1232 21.1327 14.8136C20.3233 14.274 19.7169 13.4801 19.4093 12.5572L19.3846 12.483C18.7377 10.5425 19.4492 8.40792 21.131 7.24362L27.4964 2.83697Z" fill="#94B1FF"/>
<path d="M28.5912 5.00406C28.9078 4.69321 29.419 4.70667 29.7188 5.03374C30.0045 5.34535 29.9918 5.82728 29.6902 6.12343L25.507 10.2304C25.1904 10.5412 24.6792 10.5278 24.3793 10.2007C24.0937 9.88911 24.1064 9.40718 24.408 9.11103L28.5912 5.00406Z" fill="#4342FF"/>
</svg>
